<?xml version="1.0" standalone="no"?>
<!DOCTYPE svg PUBLIC "-//W3C//DTD SVG 20010904//EN"
 "http://www.w3.org/TR/2001/REC-SVG-20010904/DTD/svg10.dtd">
<svg version="1.0" xmlns="http://www.w3.org/2000/svg"
 width="983.000000pt" height="989.000000pt" viewBox="0 0 983.000000 989.000000"
 preserveAspectRatio="xMidYMid meet">
<metadata>
Created by potrace 1.16, written by Peter Selinger 2001-2019
</metadata>
<g transform="translate(0.000000,989.000000) scale(0.100000,-0.100000)"
fill="#000000" stroke="none">
<path d="M1415 9876 c-57 -18 -82 -33 -132 -79 -146 -135 -144 -377 6 -508
l44 -39 -41 -88 c-22 -48 -203 -415 -402 -817 -199 -401 -366 -741 -371 -754
l-10 -24 -17 34 c-17 34 -46 49 -64 31 -6 -6 0 -27 16 -57 31 -58 35 -101 9
-89 -10 4 -54 9 -98 12 -111 5 -180 -21 -256 -97 -71 -71 -99 -140 -99 -245 0
-86 11 -122 57 -192 64 -98 204 -164 316 -150 59 8 142 39 168 62 17 15 18 15
25 -11 4 -16 1 -50 -6 -78 -10 -40 -10 -51 0 -57 21 -13 38 -1 52 39 l13 37
759 -814 759 -815 -17 -26 c-84 -128 -86 -283 -7 -402 l30 -44 -27 -8 c-15 -4
-51 -4 -80 -1 -52 6 -54 6 -50 -17 2 -18 13 -26 42 -34 l38 -11 -757 -813
c-417 -447 -763 -810 -769 -807 -109 48 -135 56 -203 56 -104 0 -173 -28 -244
-99 -72 -72 -99 -140 -99 -249 0 -64 5 -87 29 -139 68 -143 223 -223 374 -193
32 6 61 10 63 7 2 -2 188 -377 413 -833 l409 -829 -41 -3 c-23 -2 -45 -8 -48
-14 -13 -20 3 -38 32 -38 30 0 109 -28 109 -39 0 -3 -16 -17 -34 -29 -89 -61
-149 -211 -128 -323 21 -116 89 -209 188 -259 71 -36 196 -40 279 -9 111 41
215 176 215 279 0 27 3 29 53 34 65 7 1740 116 1785 116 32 0 32 0 16 -24 -8
-14 -14 -35 -12 -48 4 -32 36 -36 47 -6 12 33 60 88 76 88 7 0 16 -17 20 -37
15 -85 93 -178 185 -222 47 -22 69 -26 145 -26 76 0 98 4 146 26 72 34 134 96
168 168 22 48 26 70 26 146 0 76 -4 99 -26 145 -29 61 -88 126 -143 155 -20
11 -36 22 -36 26 0 12 29 30 77 49 51 19 58 27 43 50 -7 12 -16 12 -49 4 -23
-6 -41 -9 -41 -6 0 5 607 1992 637 2085 15 48 15 48 52 42 126 -21 290 73 345
197 l23 51 22 -31 c12 -17 28 -47 36 -66 11 -25 22 -36 36 -36 18 0 21 5 17
33 -3 17 -8 39 -12 49 -6 14 -3 15 26 9 18 -4 508 -117 1089 -251 l1057 -243
4 -71 c7 -132 75 -231 197 -289 54 -26 77 -31 140 -30 186 0 322 122 347 310
11 89 -35 216 -102 278 l-23 21 517 777 c284 427 519 777 522 777 4 0 12 -16
19 -35 9 -27 18 -35 37 -35 28 0 30 15 9 56 -8 16 -15 45 -15 65 l0 36 53 -18
c120 -42 254 -15 348 69 76 68 109 143 109 249 0 106 -25 175 -88 242 -69 73
-145 105 -247 105 -50 0 -97 -6 -125 -17 -24 -9 -47 -13 -50 -8 -78 114 -1030
1541 -1030 1543 0 2 16 4 36 5 41 1 59 15 51 37 -4 10 -19 15 -45 14 -22 0
-55 5 -74 11 l-35 11 39 41 c160 168 108 449 -102 548 -41 19 -75 26 -135 29
-111 5 -180 -21 -256 -97 -69 -69 -99 -141 -99 -237 l0 -64 -37 19 c-21 10
-47 28 -57 40 -11 12 -27 21 -38 21 -28 0 -23 -45 8 -69 19 -15 22 -22 13 -25
-24 -8 -2147 -496 -2157 -496 -6 0 -21 20 -33 45 -31 62 -94 123 -159 154 -43
20 -74 26 -142 29 l-87 4 10 26 c6 15 21 41 35 59 31 41 31 63 -1 63 -18 0
-31 -10 -44 -31 -16 -27 -20 -28 -24 -13 -4 11 -148 485 -322 1054 -174 569
-318 1043 -321 1052 -4 12 11 27 50 52 105 67 161 179 154 306 -6 93 -31 153
-92 218 -68 72 -148 106 -251 106 -66 0 -90 -4 -140 -27 -33 -16 -77 -45 -99
-65 -38 -37 -96 -141 -96 -174 0 -14 -8 -18 -32 -18 -47 0 -1745 109 -1796
116 l-42 5 20 29 c23 33 26 58 6 66 -9 3 -34 -15 -63 -45 -27 -28 -55 -51 -61
-51 -7 0 -12 14 -12 33 0 119 -115 257 -246 295 -53 15 -147 14 -199 -2z m231
-35 c62 -28 138 -103 165 -164 35 -79 34 -192 -4 -269 -100 -203 -366 -243
-521 -78 -167 178 -78 470 161 530 53 13 146 4 199 -19z m2648 -172 c102 -38
185 -145 201 -260 13 -91 -34 -211 -109 -277 -46 -40 -78 -56 -144 -72 -130
-30 -280 38 -344 157 -63 117 -55 239 23 347 30 43 96 91 153 113 51 19 158
16 220 -8z m-2367 -234 c44 -70 92 -57 54 15 l-20 40 57 -6 c88 -8 1735 -114
1774 -114 34 0 34 -1 46 -60 7 -34 15 -67 19 -75 8 -22 -29 -19 -88 6 -38 17
-53 19 -62 10 -15 -15 1 -42 37 -60 l28 -13 -29 -17 c-78 -48 -1021 -590
-1030 -593 -6 -2 -214 172 -462 387 l-451 389 20 34 c11 18 25 53 31 77 10 38
14 43 29 35 10 -5 31 -30 47 -55z m274 -521 c238 -207 434 -381 434 -385 0 -9
-796 -473 -800 -467 0 2 -46 235 -100 518 -54 283 -100 521 -103 527 -3 9 4 9
24 -2 44 -23 74 -20 74 8 0 17 -10 26 -44 40 -24 10 -51 26 -61 37 -16 18 -15
19 30 39 25 11 58 29 72 41 14 11 29 20 32 20 4 0 203 -169 442 -376z m-703
289 c34 -3 62 -8 62 -10 0 -12 -53 -85 -65 -90 -8 -3 -15 -16 -15 -29 0 -33
30 -32 63 2 20 19 28 23 31 13 7 -21 206 -1062 203 -1065 -1 0 -260 -150 -576
-332 l-575 -332 -52 48 c-28 26 -52 50 -53 53 -2 11 77 39 110 39 26 0 30 3
27 23 -3 19 -9 22 -46 22 -23 0 -42 2 -42 5 0 3 176 361 391 795 215 435 400
810 410 834 16 37 23 42 42 37 12 -4 50 -9 85 -13z m2502 -128 c11 -3 20 -10
20 -15 0 -13 -52 -39 -97 -48 -28 -6 -38 -13 -38 -27 0 -17 7 -20 48 -19 26 0
46 -3 45 -7 -62 -164 -445 -1108 -450 -1106 -22 7 -767 662 -761 668 11 10
1033 599 1039 599 3 0 2 -9 -1 -21 -11 -33 3 -69 25 -69 18 0 25 11 21 34 -1
4 5 33 14 63 l16 55 49 -50 c27 -28 59 -53 70 -57z m248 -50 c2 -1 146 -470
321 -1041 175 -572 321 -1049 325 -1061 7 -22 5 -23 -38 -17 -37 5 -47 3 -52
-10 -3 -9 -14 -16 -24 -16 -21 0 -30 -19 -30 -61 0 -26 -49 14 -585 477 l-584
507 13 31 c7 17 109 273 227 568 118 296 217 538 220 538 3 0 12 -11 19 -25
15 -29 47 -42 63 -26 9 9 8 16 -1 29 -17 24 -52 95 -52 108 0 7 29 9 88 6 48
-2 88 -6 90 -7z m-1147 -891 c219 -190 399 -351 399 -357 0 -13 -379 -968
-389 -979 -5 -6 -1051 139 -1059 146 -8 9 -202 1051 -195 1054 4 1 193 110
418 242 226 131 414 239 418 239 5 1 188 -155 408 -345z m-1211 -682 c53 -273
96 -498 96 -498 -1 -2 -1219 173 -1262 181 -29 5 -32 9 -45 78 -7 39 -14 77
-14 84 0 13 1116 663 1125 656 2 -2 48 -228 100 -501z m2254 -222 l558 -483
-38 -13 c-22 -8 -40 -14 -41 -14 -2 0 -3 -9 -3 -19 0 -23 18 -31 45 -20 26 10
118 11 113 2 -12 -24 -46 -101 -52 -118 -6 -18 -9 -17 -32 10 -14 17 -32 45
-40 63 -19 42 -54 45 -54 4 0 -15 7 -38 16 -51 16 -23 16 -23 -12 -17 -24 5
-1419 206 -1429 206 -1 0 83 216 188 479 166 415 194 478 207 467 8 -7 266
-230 574 -496z m-3671 217 c152 -69 225 -246 166 -402 -96 -256 -465 -275
-585 -30 -131 270 147 557 419 432z m7615 21 c186 -46 289 -243 221 -424 -44
-117 -148 -193 -275 -202 -137 -9 -246 53 -306 175 -90 183 0 387 197 449 51
16 104 17 163 2z m-6723 -489 c346 -50 631 -91 632 -93 1 -1 70 -355 153 -786
83 -432 154 -795 157 -807 3 -16 1 -23 -8 -23 -8 0 -35 -11 -61 -25 l-47 -25
-338 362 c-187 200 -530 568 -763 818 l-424 455 37 6 c45 7 60 20 52 42 -6 13
-18 15 -74 10 -45 -4 -71 -2 -75 5 -4 6 7 30 24 53 16 23 30 46 30 50 0 4 4
19 10 33 8 21 14 25 37 21 15 -3 311 -46 658 -96z m6333 37 c7 -19 26 -51 42
-71 16 -21 27 -42 23 -49 -13 -22 -805 -1026 -813 -1031 -5 -3 -355 115 -779
262 l-770 266 2 66 2 66 1065 246 c586 135 1077 248 1092 252 l28 7 -16 -34
c-19 -39 -13 -66 14 -66 11 0 22 12 30 34 13 36 48 86 61 86 4 0 13 -15 19
-34z m-5096 -215 c257 -37 470 -70 474 -74 3 -3 -123 -331 -282 -727 l-288
-721 -66 7 c-36 3 -67 8 -69 10 -3 3 -227 1152 -294 1511 l-14 73 36 -6 c20
-3 246 -36 503 -73z m5320 25 l53 -13 3 -656 2 -656 -247 85 c-137 47 -354
122 -485 167 l-236 82 406 517 c399 506 407 517 429 502 13 -8 47 -20 75 -28z
m-3015 3 l34 -22 -43 -25 c-24 -14 -53 -33 -64 -44 -21 -19 -21 -19 -28 4 -8
30 -8 82 0 103 9 21 52 14 101 -16z m3280 -14 c-4 -25 -13 -58 -20 -73 -17
-33 -12 -52 15 -52 14 0 24 12 35 40 l16 39 518 -775 519 -775 -38 -48 c-20
-27 -42 -57 -49 -67 -10 -18 -12 -18 -28 -2 -10 9 -23 38 -30 65 -9 36 -17 48
-31 48 -16 0 -19 -7 -18 -47 0 -27 0 -48 0 -48 -1 0 -233 81 -516 179 l-515
179 0 668 0 667 50 12 c28 6 59 16 70 23 28 16 28 17 22 -33z m-2981 -55 c118
-58 181 -168 172 -304 -11 -164 -130 -283 -294 -294 -137 -9 -246 53 -306 175
-29 58 -33 78 -33 143 0 60 5 86 26 130 81 170 266 234 435 150z m-1339 -140
c384 -55 709 -103 722 -106 l24 -5 -22 -23 c-22 -24 -28 -61 -11 -71 6 -4 33
14 61 39 65 59 79 59 79 2 0 -24 6 -61 14 -83 l14 -40 -786 -454 c-433 -250
-878 -507 -989 -571 -179 -103 -202 -114 -197 -92 10 37 -3 74 -26 74 -11 0
-20 -3 -21 -7 0 -5 -1 -24 -3 -45 -2 -20 -9 -50 -16 -67 l-13 -31 -51 47 c-29
27 -59 53 -68 58 -15 9 17 95 267 720 326 813 302 755 314 755 5 0 324 -45
708 -100z m2237 -536 c391 -136 732 -254 757 -263 l47 -16 -316 -400 c-173
-220 -318 -400 -322 -400 -5 0 -224 274 -488 610 l-480 609 34 45 c19 24 34
48 34 52 0 5 5 9 12 9 7 0 332 -111 722 -246z m-1228 103 c21 -15 66 -33 98
-41 32 -9 61 -17 62 -19 5 -5 -56 -67 -83 -85 -53 -34 -13 -66 42 -33 l35 20
0 -1139 c0 -1126 0 -1140 -20 -1140 -47 0 -135 -44 -186 -94 l-54 -52 -15 38
c-8 21 -15 54 -15 73 0 37 -10 48 -34 39 -9 -4 -16 -21 -18 -48 l-3 -43 -982
566 c-740 426 -981 570 -977 581 3 8 11 43 17 78 11 60 6 103 -19 191 -7 22
-5 23 27 16 19 -4 47 -13 63 -21 16 -8 38 -14 48 -14 32 0 18 42 -21 62 -30
15 -32 17 -15 28 11 6 453 262 984 569 l965 558 31 -32 c17 -18 48 -44 70 -58z
m863 -621 c266 -338 483 -618 483 -623 0 -4 -204 -268 -453 -585 -428 -544
-455 -575 -463 -550 -12 38 -25 52 -48 52 -17 0 -19 -4 -14 -27 11 -46 19
-133 12 -133 -4 0 -24 9 -45 20 -22 11 -58 22 -80 26 l-41 7 0 1139 0 1140 35
-22 c20 -12 42 -19 50 -16 21 8 19 43 -3 50 -26 9 -85 72 -78 84 3 5 25 13 48
16 24 4 54 13 68 21 14 8 30 14 35 15 6 0 228 -276 494 -614z m1749 39 l492
-170 0 -491 0 -491 -427 -148 c-236 -81 -462 -160 -504 -175 l-77 -28 -326
415 c-180 228 -327 418 -329 423 -4 17 648 839 664 837 8 -1 237 -78 507 -172z
m1049 -364 c268 -93 496 -172 506 -176 16 -7 14 -10 -12 -26 -21 -13 -31 -27
-31 -44 0 -32 21 -32 63 -1 18 13 46 28 62 33 l30 10 -3 -86 c-2 -47 -7 -89
-10 -92 -8 -8 -1078 -379 -1092 -379 -6 0 -10 176 -10 465 0 256 2 465 4 465
3 0 224 -76 493 -169z m-5994 -10 c112 -55 179 -164 180 -293 1 -200 -197
-354 -391 -304 -108 27 -172 81 -219 181 -76 166 9 366 184 431 59 22 187 14
246 -15z m7082 0 c122 -57 191 -174 183 -307 -15 -233 -258 -370 -468 -263
-50 25 -115 96 -142 154 -31 69 -32 190 -1 256 75 164 268 236 428 160z
m-3035 -747 c172 -218 309 -399 305 -402 -4 -4 -325 -117 -714 -252 l-708
-246 9 34 c11 39 5 62 -17 62 -9 0 -15 9 -15 24 0 21 -6 26 -41 33 l-42 8 449
571 c247 314 452 570 456 567 4 -2 147 -182 318 -399z m2598 291 c6 -14 30
-45 52 -68 l40 -44 -39 -11 c-21 -7 -54 -12 -74 -12 -20 0 -39 -5 -42 -10 -12
-19 16 -40 51 -40 19 0 34 -2 34 -5 0 -3 -232 -353 -516 -779 l-516 -773 -49
18 c-27 11 -58 19 -69 19 -11 0 -20 2 -20 5 0 16 36 57 66 76 41 25 46 59 10
59 -13 0 -35 -9 -50 -21 l-26 -20 0 619 0 619 328 114 c180 62 433 150 562
195 129 46 238 83 241 83 3 1 11 -10 17 -24z m-5512 -602 l983 -568 -35 -18
c-25 -13 -34 -24 -34 -42 0 -30 5 -31 61 -5 24 11 56 20 71 20 l27 0 -14 -41
c-8 -23 -15 -61 -15 -84 0 -40 -2 -43 -32 -49 -18 -3 -364 -53 -768 -111 -404
-58 -743 -107 -752 -109 -14 -3 -63 110 -273 638 -142 352 -265 662 -275 687
l-18 45 46 0 c40 -1 47 2 47 19 0 14 -10 21 -38 27 -45 9 -97 35 -97 48 0 5 8
11 19 15 10 3 38 25 62 50 24 24 46 44 48 45 2 0 446 -255 987 -567z m-1413
457 c26 -12 47 -24 47 -28 -1 -11 -72 -58 -97 -64 -26 -7 -33 12 -33 91 0 51
1 53 18 38 10 -9 39 -26 65 -37z m247 -30 c0 -18 -30 -84 -47 -102 -16 -18
-17 -17 -41 4 -13 13 -32 40 -43 60 l-19 37 63 4 c34 2 68 4 75 5 6 1 12 -3
12 -8z m-366 -78 c4 -7 16 -12 27 -12 10 0 19 -5 19 -11 0 -12 51 -8 83 6 15
6 17 4 13 -16 -3 -13 -69 -352 -146 -753 -77 -401 -142 -732 -145 -734 -3 -3
-265 -43 -583 -88 -317 -46 -590 -85 -606 -88 -24 -5 -27 -3 -21 12 5 9 10 32
13 50 7 50 -27 43 -57 -12 -13 -25 -32 -52 -42 -62 -18 -16 -19 -16 -25 2 -16
51 -29 79 -51 111 l-23 34 282 303 c156 166 499 535 763 818 468 502 480 515
486 484 3 -17 9 -37 13 -44z m672 -690 l270 -678 -509 -72 c-280 -40 -510 -72
-511 -70 -2 2 205 1084 279 1456 l6 33 20 -25 c18 -23 26 -26 75 -23 39 3 58
9 69 23 8 10 15 22 15 27 1 34 49 -78 286 -671z m5164 -53 l0 -601 -26 16
c-14 10 -35 16 -47 14 -31 -4 -34 -36 -5 -47 14 -5 39 -26 58 -47 l34 -39 -45
-7 c-24 -4 -65 -18 -91 -31 l-48 -24 0 36 c1 20 7 54 15 76 15 42 9 59 -21 53
-12 -2 -23 -18 -29 -42 l-11 -39 -279 354 c-153 195 -321 407 -372 471 -51 65
-93 121 -93 125 0 8 923 331 948 332 9 1 12 -126 12 -600z m-646 -240 l373
-474 -41 -10 c-31 -8 -41 -15 -41 -30 0 -17 7 -20 55 -21 30 0 65 -4 78 -8 22
-7 22 -8 -13 -49 -19 -22 -40 -56 -47 -74 -7 -18 -17 -33 -23 -33 -11 0 -2132
488 -2154 496 -11 3 -7 12 15 35 24 25 26 33 17 48 -8 13 -8 22 -1 29 13 13
-1 38 -34 60 -25 17 -17 20 701 269 399 138 730 248 734 244 4 -4 176 -221
381 -482z m-2129 155 c195 -98 235 -358 80 -510 -160 -157 -419 -111 -512 92
-48 106 -39 216 27 315 85 129 265 174 405 103z m233 -19 c8 -8 -16 -81 -36
-105 -17 -21 -17 -21 -60 40 -43 61 -43 62 3 74 23 5 85 0 93 -9z m33 -201
c50 -25 55 -41 20 -73 -17 -16 -43 -33 -59 -39 l-27 -9 -1 74 c-2 81 -1 82 67
47z m-723 -202 c12 -31 24 -60 25 -63 2 -7 -1213 -1063 -1217 -1057 -2 2 -88
217 -193 478 l-189 476 760 111 c419 61 768 111 776 112 9 0 24 -21 38 -57z
m150 -166 c23 -12 31 -22 28 -34 -3 -9 -149 -488 -326 -1065 -176 -576 -320
-1050 -320 -1055 0 -4 -12 8 -26 26 -30 38 -64 43 -64 10 0 -12 9 -31 20 -42
10 -12 26 -37 34 -56 l14 -35 -92 0 -92 -1 -241 606 c-133 333 -243 610 -245
616 -2 6 276 252 616 547 616 534 620 537 640 518 12 -10 36 -26 54 -35z
m-1589 -508 l198 -494 -398 -344 c-219 -190 -403 -346 -409 -348 -8 -3 -816
455 -843 478 -7 6 172 968 192 1030 8 25 11 25 532 101 288 42 525 75 527 74
2 -2 92 -225 201 -497z m-2833 421 c150 -74 221 -250 163 -404 -79 -211 -361
-274 -519 -116 -115 115 -131 273 -43 407 84 129 262 180 399 113z m7670 0
c201 -97 247 -359 90 -515 -125 -125 -324 -126 -449 -1 -123 123 -124 326 -3
449 93 95 246 124 362 67z m-6166 -106 c-1 -10 -43 -234 -94 -498 -66 -344
-96 -479 -105 -477 -7 1 -244 136 -527 299 -492 284 -513 297 -486 308 15 7
33 20 41 29 12 15 12 19 0 31 -13 13 -20 12 -54 -4 -22 -11 -55 -22 -72 -26
l-33 -7 14 39 c7 21 17 62 21 91 4 28 11 52 16 52 6 0 32 -20 58 -45 26 -25
51 -45 54 -45 4 0 11 9 17 19 8 16 5 26 -16 50 -14 17 -24 31 -22 32 33 7
1141 167 1161 168 20 1 27 -4 27 -16z m-1331 -425 c6 -24 12 -56 13 -73 2 -22
8 -30 23 -30 17 0 20 8 23 46 l3 47 532 -308 c480 -278 532 -310 530 -331 -2
-13 -51 -276 -110 -585 l-108 -561 -70 -10 c-38 -6 -78 -14 -88 -18 -16 -7
-17 -4 -11 21 4 16 15 46 25 66 25 48 24 68 -1 68 -13 0 -28 -12 -38 -30 -9
-16 -19 -30 -22 -30 -3 0 -191 377 -417 837 l-413 836 23 15 c12 9 36 31 52
49 17 18 33 33 36 33 4 0 11 -19 18 -42z m3130 -1063 c211 -527 238 -601 223
-610 -9 -5 -37 -30 -64 -53 -26 -24 -51 -42 -56 -40 -31 11 -1121 644 -1119
649 5 15 763 666 769 660 3 -3 114 -276 247 -606z m-1530 165 c215 -124 391
-228 391 -231 0 -6 -788 -692 -802 -697 -4 -2 -8 9 -8 25 0 38 -21 66 -42 58
-14 -6 -16 -17 -12 -68 6 -79 -5 -100 -38 -70 -13 12 -46 32 -73 45 l-51 23
110 573 c78 407 114 572 123 570 7 -2 188 -104 402 -228z m1251 -723 c210
-121 354 -211 353 -219 -1 -7 -8 -42 -16 -78 l-14 -64 -52 52 c-28 29 -58 52
-66 52 -21 0 -19 -43 4 -72 l19 -24 -896 -57 c-494 -32 -913 -60 -933 -63 -35
-5 -36 -4 -48 38 -7 24 -22 60 -32 80 -18 36 -18 37 0 43 10 3 38 1 62 -4 65
-15 79 -14 79 8 0 23 -13 33 -56 40 -30 6 -16 19 385 366 l416 361 220 -127
c121 -70 380 -219 575 -332z m817 -68 c111 -53 177 -159 177 -285 1 -176 -142
-318 -319 -318 -276 0 -422 341 -231 538 103 105 239 129 373 65z m-2696 -154
c155 -53 250 -232 206 -386 -45 -153 -184 -250 -337 -236 -269 24 -387 351
-196 543 86 85 216 117 327 79z"/>
</g>
</svg>
