<?xml version="1.0" encoding="UTF-8"?>
<svg xmlns="http://www.w3.org/2000/svg" xmlns:xlink="http://www.w3.org/1999/xlink" width="302.952pt" height="181.019pt" viewBox="0 0 302.952 181.019" version="1.1">
<defs>
<clipPath id="clip1">
  <path d="M 169 4 L 302.953125 4 L 302.953125 54 L 169 54 Z M 169 4 "/>
</clipPath>
</defs>
<g id="surface1">
<path style=" stroke:none;fill-rule:evenodd;fill:rgb(100%,0%,0%);fill-opacity:0.3;" d="M 175.710938 2.027344 C 177.480469 3.792969 177.480469 7.328125 169.527344 14.398438 C 161.570312 21.46875 145.664062 32.074219 142.128906 41.792969 C 138.59375 51.515625 147.433594 60.351562 155.386719 68.304688 C 163.339844 76.257812 170.410156 83.328125 173.0625 87.746094 C 175.710938 92.164062 173.945312 93.933594 169.527344 94.816406 C 165.105469 95.699219 158.035156 95.699219 153.617188 94.816406 C 149.199219 93.933594 147.433594 92.164062 139.480469 85.097656 C 131.523438 78.027344 117.386719 65.652344 110.316406 58.585938 C 103.246094 51.515625 103.246094 49.746094 113.851562 40.910156 C 124.453125 32.074219 145.664062 16.164062 158.035156 8.210938 C 170.410156 0.257812 173.945312 0.257812 175.710938 2.027344 Z M 175.710938 2.027344 "/>
<g clip-path="url(#clip1)" clip-rule="nonzero">
<path style=" stroke:none;fill-rule:evenodd;fill:rgb(0%,0%,50.19989%);fill-opacity:0.3;" d="M 194.269531 8.210938 C 216.363281 14.398438 255.246094 28.539062 276.457031 36.492188 C 297.667969 44.445312 301.203125 46.210938 302.085938 47.980469 C 302.96875 49.746094 301.203125 51.515625 296.78125 52.398438 C 292.363281 53.28125 285.296875 53.28125 280.875 52.398438 C 276.457031 51.515625 274.691406 49.746094 262.316406 44.445312 C 249.945312 39.140625 226.96875 30.304688 208.410156 23.234375 C 189.851562 16.164062 175.710938 10.863281 171.292969 7.328125 C 166.875 3.792969 172.175781 2.027344 194.269531 8.210938 Z M 194.269531 8.210938 "/>
</g>
<path style=" stroke:none;fill-rule:evenodd;fill:rgb(64.698792%,16.499329%,16.499329%);fill-opacity:0.3;" d="M 190.734375 8.210938 C 209.292969 14.398438 241.109375 28.539062 258.78125 36.492188 C 276.457031 44.445312 279.992188 46.210938 280.875 47.980469 C 281.761719 49.746094 279.992188 51.515625 276.457031 52.398438 C 272.921875 53.28125 267.621094 53.28125 263.203125 52.398438 C 258.78125 51.515625 255.246094 49.746094 245.527344 44.445312 C 235.804688 39.140625 219.898438 30.304688 204.875 23.234375 C 189.851562 16.164062 175.710938 10.863281 171.292969 7.328125 C 166.875 3.792969 172.175781 2.027344 190.734375 8.210938 Z M 190.734375 8.210938 "/>
<path style=" stroke:none;fill-rule:evenodd;fill:rgb(62.69989%,12.5%,94.099426%);fill-opacity:0.3;" d="M 187.199219 8.210938 C 202.222656 14.398438 226.96875 28.539062 241.109375 36.492188 C 255.246094 44.445312 258.78125 46.210938 259.667969 47.980469 C 260.550781 49.746094 258.78125 51.515625 254.363281 52.398438 C 249.945312 53.28125 242.875 53.28125 238.457031 52.398438 C 234.039062 51.515625 232.269531 49.746094 223.433594 43.5625 C 214.597656 37.375 198.6875 26.769531 187.199219 19.699219 C 175.710938 12.628906 168.640625 9.097656 167.757812 6.445312 C 166.875 3.792969 172.175781 2.027344 187.199219 8.210938 Z M 187.199219 8.210938 "/>
<path style=" stroke:none;fill-rule:evenodd;fill:rgb(100%,64.698792%,0%);fill-opacity:0.3;" d="M 180.132812 4.675781 C 188.085938 9.097656 198.6875 17.933594 209.003906 25.214844 C 219.316406 32.496094 229.335938 38.222656 241.710938 46.175781 C 254.082031 54.132812 268.804688 64.3125 279.699219 72.054688 C 290.597656 79.792969 297.667969 85.097656 300.316406 88.632812 C 302.96875 92.164062 301.203125 93.933594 296.78125 94.816406 C 292.363281 95.699219 285.296875 95.699219 280.875 94.816406 C 276.457031 93.933594 274.691406 92.164062 263.203125 84.214844 C 251.714844 76.257812 230.503906 62.121094 216.363281 51.515625 C 202.222656 40.910156 195.152344 33.839844 187.199219 25.886719 C 179.246094 17.933594 170.410156 9.097656 168.640625 4.675781 C 166.875 0.257812 172.175781 0.257812 180.132812 4.675781 Z M 180.132812 4.675781 "/>
<path style=" stroke:none;fill-rule:evenodd;fill:rgb(100%,0%,0%);fill-opacity:0.3;" d="M 180.132812 4.675781 C 188.085938 9.097656 198.6875 17.933594 209.003906 25.214844 C 219.316406 32.496094 229.335938 38.222656 239.058594 46.175781 C 248.777344 54.132812 258.199219 64.3125 265.5625 72.054688 C 272.921875 79.792969 278.226562 85.097656 279.992188 88.632812 C 281.761719 92.164062 279.992188 93.933594 275.574219 94.816406 C 271.15625 95.699219 264.085938 95.699219 259.667969 94.816406 C 255.246094 93.933594 253.480469 92.164062 245.527344 84.214844 C 237.574219 76.257812 223.433594 62.121094 212.828125 51.515625 C 202.222656 40.910156 195.152344 33.839844 187.199219 25.886719 C 179.246094 17.933594 170.410156 9.097656 168.640625 4.675781 C 166.875 0.257812 172.175781 0.257812 180.132812 4.675781 Z M 180.132812 4.675781 "/>
<path style=" stroke:none;fill-rule:evenodd;fill:rgb(0%,0%,100%);fill-opacity:0.3;" d="M 180.132812 4.675781 C 188.085938 9.097656 198.6875 17.933594 209.003906 25.214844 C 219.316406 32.496094 229.335938 38.222656 234.640625 42.640625 C 239.941406 47.0625 240.523438 50.171875 244.351562 57.914062 C 248.179688 65.652344 255.246094 78.027344 257.898438 85.097656 C 260.550781 92.164062 258.78125 93.933594 254.363281 94.816406 C 249.945312 95.699219 242.875 95.699219 238.457031 94.816406 C 234.039062 93.933594 232.269531 92.164062 227.851562 84.214844 C 223.433594 76.257812 216.363281 62.121094 209.292969 51.515625 C 202.222656 40.910156 195.152344 33.839844 187.199219 25.886719 C 179.246094 17.933594 170.410156 9.097656 168.640625 4.675781 C 166.875 0.257812 172.175781 0.257812 180.132812 4.675781 Z M 180.132812 4.675781 "/>
<path style=" stroke:none;fill-rule:evenodd;fill:rgb(0%,100%,0%);fill-opacity:0.3;" d="M 180.132812 4.675781 C 188.085938 9.097656 198.6875 17.933594 209.003906 25.214844 C 219.316406 32.496094 229.335938 38.222656 234.640625 42.640625 C 239.941406 47.0625 240.523438 50.171875 239.933594 57.914062 C 239.339844 65.652344 237.574219 78.027344 241.109375 91.28125 C 244.644531 104.539062 253.480469 118.679688 257.015625 126.632812 C 260.550781 134.585938 258.78125 136.351562 254.363281 137.238281 C 249.945312 138.121094 242.875 138.121094 238.457031 137.238281 C 234.039062 136.351562 232.269531 134.585938 227.851562 126.632812 C 223.433594 118.679688 216.363281 104.539062 212.828125 90.398438 C 209.292969 76.257812 209.292969 62.121094 205.757812 51.515625 C 202.222656 40.910156 195.152344 33.839844 187.199219 25.886719 C 179.246094 17.933594 170.410156 9.097656 168.640625 4.675781 C 166.875 0.257812 172.175781 0.257812 180.132812 4.675781 Z M 180.132812 4.675781 "/>
<path style=" stroke:none;fill-rule:evenodd;fill:rgb(67.799377%,84.698486%,90.19928%);fill-opacity:0.3;" d="M 180.132812 4.675781 C 188.085938 9.097656 198.6875 17.933594 209.003906 25.214844 C 219.316406 32.496094 229.335938 38.222656 234.640625 42.640625 C 239.941406 47.0625 240.523438 50.171875 240.816406 57.914062 C 241.109375 65.652344 241.109375 78.027344 241.109375 91.28125 C 241.109375 104.539062 241.109375 118.679688 240.222656 126.632812 C 239.339844 134.585938 237.574219 136.351562 233.15625 137.238281 C 228.734375 138.121094 221.664062 138.121094 217.246094 137.238281 C 212.828125 136.351562 211.0625 134.585938 211.0625 125.746094 C 211.0625 116.910156 212.828125 101.003906 212.828125 86.863281 C 212.828125 72.722656 211.0625 60.351562 206.644531 50.632812 C 202.222656 40.910156 195.152344 33.839844 187.199219 25.886719 C 179.246094 17.933594 170.410156 9.097656 168.640625 4.675781 C 166.875 0.257812 172.175781 0.257812 180.132812 4.675781 Z M 180.132812 4.675781 "/>
<path style=" stroke:none;fill-rule:evenodd;fill:rgb(100%,84.298706%,0%);fill-opacity:0.3;" d="M 180.132812 4.675781 C 188.085938 9.097656 198.6875 17.933594 209.003906 25.214844 C 219.316406 32.496094 229.335938 38.222656 234.640625 42.640625 C 239.941406 47.0625 240.523438 50.171875 240.816406 58.796875 C 241.109375 67.421875 241.109375 81.5625 237.574219 94.816406 C 234.039062 108.074219 226.96875 120.445312 222.550781 127.515625 C 218.132812 134.585938 216.363281 136.351562 211.945312 137.238281 C 207.527344 138.121094 200.457031 138.121094 196.039062 137.238281 C 191.617188 136.351562 189.851562 134.585938 192.503906 127.515625 C 195.152344 120.445312 202.222656 108.074219 205.757812 93.933594 C 209.292969 79.792969 209.292969 63.886719 205.757812 52.398438 C 202.222656 40.910156 195.152344 33.839844 187.199219 25.886719 C 179.246094 17.933594 170.410156 9.097656 168.640625 4.675781 C 166.875 0.257812 172.175781 0.257812 180.132812 4.675781 Z M 180.132812 4.675781 "/>
<path style=" stroke:none;fill-rule:evenodd;fill:rgb(54.499817%,0%,0%);fill-opacity:0.3;" d="M 180.132812 4.675781 C 188.085938 9.097656 198.6875 17.933594 209.292969 25.003906 C 219.898438 32.074219 230.503906 37.375 235.257812 41.625 C 240.011719 45.878906 238.917969 49.074219 235.382812 57.027344 C 231.847656 64.984375 225.871094 77.691406 222.886719 84.929688 C 219.898438 92.164062 219.898438 93.933594 215.480469 94.816406 C 211.0625 95.699219 202.222656 95.699219 196.921875 94.816406 C 191.617188 93.933594 189.851562 92.164062 192.148438 84.921875 C 194.445312 77.671875 200.808594 64.945312 203.550781 57.082031 C 206.289062 49.21875 205.40625 46.210938 197.804688 37.550781 C 190.203125 28.890625 175.890625 14.574219 171.382812 7.414062 C 166.875 0.257812 172.175781 0.257812 180.132812 4.675781 Z M 180.132812 4.675781 "/>
<path style=" stroke:none;fill-rule:evenodd;fill:rgb(100%,54.899597%,0%);fill-opacity:0.3;" d="M 180.132812 5.5625 C 186.316406 10.863281 195.152344 21.46875 202.222656 29.421875 C 209.292969 37.375 214.597656 42.675781 216.363281 46.210938 C 218.132812 49.746094 216.363281 51.515625 211.945312 52.398438 C 207.527344 53.28125 200.457031 53.28125 196.039062 52.398438 C 191.617188 51.515625 189.851562 49.746094 187.199219 45.328125 C 184.550781 40.910156 181.015625 33.839844 177.480469 25.886719 C 173.945312 17.933594 170.410156 9.097656 170.410156 4.675781 C 170.410156 0.257812 173.945312 0.257812 180.132812 5.5625 Z M 180.132812 5.5625 "/>
<path style=" stroke:none;fill-rule:evenodd;fill:rgb(54.499817%,0%,54.499817%);fill-opacity:0.3;" d="M 175.710938 1.140625 C 177.480469 2.027344 177.480469 3.792969 181.015625 11.746094 C 184.550781 19.699219 191.617188 33.839844 194.269531 41.792969 C 196.921875 49.746094 195.152344 51.515625 190.734375 52.398438 C 186.316406 53.28125 179.246094 53.28125 174.828125 52.398438 C 170.410156 51.515625 168.640625 49.746094 167.757812 43.5625 C 166.875 37.375 166.875 26.769531 166.875 18.816406 C 166.875 10.863281 166.875 5.5625 168.640625 2.910156 C 170.410156 0.257812 173.945312 0.257812 175.710938 1.140625 Z M 175.710938 1.140625 "/>
<path style=" stroke:none;fill-rule:evenodd;fill:rgb(0%,39.199829%,0%);fill-opacity:0.3;" d="M 175.710938 2.027344 C 177.480469 3.792969 177.480469 7.328125 177.480469 15.28125 C 177.480469 23.234375 177.480469 35.609375 176.597656 42.675781 C 175.710938 49.746094 173.945312 51.515625 169.527344 52.398438 C 165.105469 53.28125 158.035156 53.28125 153.617188 52.398438 C 149.199219 51.515625 147.433594 49.746094 148.316406 43.5625 C 149.199219 37.375 152.734375 26.769531 156.269531 18.816406 C 159.804688 10.863281 163.339844 5.5625 166.875 2.910156 C 170.410156 0.257812 173.945312 0.257812 175.710938 2.027344 Z M 175.710938 2.027344 "/>
<path style=" stroke:none;fill-rule:evenodd;fill:rgb(66.299438%,66.299438%,66.299438%);fill-opacity:0.3;" d="M 175.710938 2.027344 C 177.480469 3.792969 177.480469 7.328125 173.945312 14.398438 C 170.410156 21.46875 163.339844 32.074219 159.804688 39.140625 C 156.269531 46.210938 156.269531 49.746094 151.851562 51.515625 C 147.433594 53.28125 138.59375 53.28125 133.292969 52.398438 C 127.988281 51.515625 126.222656 49.746094 129.757812 43.5625 C 133.292969 37.375 142.128906 26.769531 149.199219 18.816406 C 156.269531 10.863281 161.570312 5.5625 165.992188 2.910156 C 170.410156 0.257812 173.945312 0.257812 175.710938 2.027344 Z M 175.710938 2.027344 "/>
<path style=" stroke:none;fill-rule:evenodd;fill:rgb(0%,0%,54.499817%);fill-opacity:0.3;" d="M 175.710938 2.027344 C 177.480469 3.792969 177.480469 7.328125 169.527344 14.398438 C 161.570312 21.46875 145.664062 32.074219 139.480469 40.027344 C 133.292969 47.980469 136.828125 53.28125 141.246094 61.234375 C 145.664062 69.1875 150.96875 79.792969 152.734375 85.980469 C 154.503906 92.164062 152.734375 93.933594 148.316406 94.816406 C 143.898438 95.699219 136.828125 95.699219 132.410156 94.816406 C 127.988281 93.933594 126.222656 92.164062 121.804688 85.097656 C 117.386719 78.027344 110.316406 65.652344 106.78125 58.585938 C 103.246094 51.515625 103.246094 49.746094 113.851562 40.910156 C 124.453125 32.074219 145.664062 16.164062 158.035156 8.210938 C 170.410156 0.257812 173.945312 0.257812 175.710938 2.027344 Z M 175.710938 2.027344 "/>
<path style=" stroke:none;fill-rule:evenodd;fill:rgb(93.299866%,50.999451%,93.299866%);fill-opacity:0.3;" d="M 175.710938 2.027344 C 177.480469 3.792969 177.480469 7.328125 169.527344 14.398438 C 161.570312 21.46875 145.664062 32.074219 138.59375 44.445312 C 131.523438 56.816406 133.292969 70.957031 134.175781 80.679688 C 135.058594 90.398438 135.058594 95.699219 138.59375 103.65625 C 142.128906 111.609375 149.199219 122.214844 151.851562 128.398438 C 154.503906 134.585938 152.734375 136.351562 148.316406 137.238281 C 143.898438 138.121094 136.828125 138.121094 132.410156 137.238281 C 127.988281 136.351562 126.222656 134.585938 121.804688 126.632812 C 117.386719 118.679688 110.316406 104.539062 105.898438 88.632812 C 101.476562 72.722656 99.710938 55.050781 110.316406 40.027344 C 120.921875 25.003906 143.898438 12.628906 157.152344 6.445312 C 170.410156 0.257812 173.945312 0.257812 175.710938 2.027344 Z M 175.710938 2.027344 "/>
<path style=" stroke:none;fill-rule:evenodd;fill:rgb(25.099182%,87.799072%,81.599426%);fill-opacity:0.3;" d="M 175.710938 2.027344 C 177.480469 3.792969 177.480469 7.328125 169.527344 14.398438 C 161.570312 21.46875 145.664062 32.074219 138.59375 44.445312 C 131.523438 56.816406 133.292969 70.957031 133.292969 80.679688 C 133.292969 90.398438 131.523438 95.699219 131.523438 103.65625 C 131.523438 111.609375 133.292969 122.214844 133.292969 128.398438 C 133.292969 134.585938 131.523438 136.351562 127.105469 137.238281 C 122.6875 138.121094 115.617188 138.121094 111.199219 137.238281 C 106.78125 136.351562 105.011719 134.585938 105.011719 124.863281 C 105.011719 115.144531 106.78125 97.46875 105.898438 81.5625 C 105.011719 65.652344 101.476562 51.515625 111.199219 38.257812 C 120.921875 25.003906 143.898438 12.628906 157.152344 6.445312 C 170.410156 0.257812 173.945312 0.257812 175.710938 2.027344 Z M 175.710938 2.027344 "/>
<path style=" stroke:none;fill-rule:evenodd;fill:rgb(17.999268%,54.499817%,34.098816%);fill-opacity:0.3;" d="M 175.710938 2.027344 C 177.480469 3.792969 177.480469 7.328125 169.527344 14.398438 C 161.570312 21.46875 145.664062 32.074219 138.59375 44.445312 C 131.523438 56.816406 133.292969 70.957031 133.292969 80.679688 C 133.292969 90.398438 131.523438 95.699219 126.222656 104.539062 C 120.921875 113.375 112.082031 125.746094 113.851562 138.121094 C 115.617188 150.492188 127.988281 162.863281 132.410156 169.933594 C 136.828125 177.003906 133.292969 178.773438 127.988281 179.65625 C 122.6875 180.539062 115.617188 180.539062 111.199219 179.65625 C 106.78125 178.773438 105.011719 177.003906 99.710938 168.167969 C 94.40625 159.328125 85.570312 143.421875 85.570312 130.167969 C 85.570312 116.910156 94.40625 106.304688 97.941406 91.28125 C 101.476562 76.257812 99.710938 56.816406 110.316406 40.910156 C 120.921875 25.003906 143.898438 12.628906 157.152344 6.445312 C 170.410156 0.257812 173.945312 0.257812 175.710938 2.027344 Z M 175.710938 2.027344 "/>
<path style=" stroke:none;fill-rule:evenodd;fill:rgb(100%,54.899597%,0%);fill-opacity:0.3;" d="M 175.710938 2.027344 C 177.480469 3.792969 177.480469 7.328125 169.527344 14.398438 C 161.570312 21.46875 145.664062 32.074219 138.59375 44.445312 C 131.523438 56.816406 133.292969 70.957031 133.292969 80.679688 C 133.292969 90.398438 131.523438 95.699219 127.105469 104.539062 C 122.6875 113.375 115.617188 125.746094 112.96875 138.121094 C 110.316406 150.492188 112.082031 162.863281 112.96875 169.933594 C 113.851562 177.003906 113.851562 178.773438 109.433594 179.65625 C 105.011719 180.539062 96.175781 180.539062 90.875 179.65625 C 85.570312 178.773438 83.804688 177.003906 82.921875 168.167969 C 82.035156 159.328125 82.035156 143.421875 85.570312 130.167969 C 89.105469 116.910156 96.175781 106.304688 98.828125 91.28125 C 101.476562 76.257812 99.710938 56.816406 110.316406 40.910156 C 120.921875 25.003906 143.898438 12.628906 157.152344 6.445312 C 170.410156 0.257812 173.945312 0.257812 175.710938 2.027344 Z M 175.710938 2.027344 "/>
<path style=" stroke:none;fill-rule:evenodd;fill:rgb(0%,0%,50.19989%);fill-opacity:0.3;" d="M 175.710938 2.027344 C 177.480469 3.792969 177.480469 7.328125 169.527344 14.398438 C 161.570312 21.46875 145.664062 32.074219 138.59375 44.445312 C 131.523438 56.816406 133.292969 70.957031 133.292969 80.679688 C 133.292969 90.398438 131.523438 95.699219 127.105469 104.539062 C 122.6875 113.375 115.617188 125.746094 109.433594 138.121094 C 103.246094 150.492188 97.941406 162.863281 95.292969 169.933594 C 92.640625 177.003906 92.640625 178.773438 86.453125 179.65625 C 80.269531 180.539062 67.894531 180.539062 64.363281 176.121094 C 60.828125 171.703125 66.128906 162.863281 74.082031 148.726562 C 82.035156 134.585938 92.640625 115.144531 97.058594 95.699219 C 101.476562 76.257812 99.710938 56.816406 110.316406 40.910156 C 120.921875 25.003906 143.898438 12.628906 157.152344 6.445312 C 170.410156 0.257812 173.945312 0.257812 175.710938 2.027344 Z M 175.710938 2.027344 "/>
<path style=" stroke:none;fill-rule:evenodd;fill:rgb(64.698792%,16.499329%,16.499329%);fill-opacity:0.3;" d="M 175.710938 2.027344 C 177.480469 3.792969 177.480469 7.328125 167.757812 17.050781 C 158.035156 26.769531 138.59375 42.675781 127.988281 55.050781 C 117.386719 67.421875 115.617188 76.257812 114.734375 82.445312 C 113.851562 88.632812 113.851562 92.164062 106.78125 93.933594 C 99.710938 95.699219 85.570312 95.699219 83.804688 87.746094 C 82.035156 79.792969 92.640625 63.886719 108.546875 47.980469 C 124.453125 32.074219 145.664062 16.164062 158.035156 8.210938 C 170.410156 0.257812 173.945312 0.257812 175.710938 2.027344 Z M 175.710938 2.027344 "/>
<path style=" stroke:none;fill-rule:evenodd;fill:rgb(62.69989%,12.5%,94.099426%);fill-opacity:0.3;" d="M 175.710938 2.027344 C 177.480469 3.792969 177.480469 7.328125 167.757812 17.050781 C 158.035156 26.769531 138.59375 42.675781 125.339844 55.050781 C 112.082031 67.421875 105.011719 76.257812 99.886719 82.445312 C 94.761719 88.632812 91.582031 92.164062 83.628906 93.933594 C 75.671875 95.699219 62.949219 95.699219 63.65625 88.632812 C 64.363281 81.5625 78.5 67.421875 97.941406 51.515625 C 117.386719 35.609375 142.128906 17.933594 156.269531 9.097656 C 170.410156 0.257812 173.945312 0.257812 175.710938 2.027344 Z M 175.710938 2.027344 "/>
<path style=" stroke:none;fill-rule:evenodd;fill:rgb(100%,64.698792%,0%);fill-opacity:0.3;" d="M 175.710938 2.027344 C 177.480469 3.792969 177.480469 7.328125 166.875 16.164062 C 156.269531 25.003906 135.058594 39.140625 121.804688 46.210938 C 108.546875 53.28125 103.246094 53.28125 95.292969 53.28125 C 87.339844 53.28125 76.734375 53.28125 88.222656 44.445312 C 99.710938 35.609375 133.292969 17.933594 151.851562 9.097656 C 170.410156 0.257812 173.945312 0.257812 175.710938 2.027344 Z M 175.710938 2.027344 "/>
<path style=" stroke:none;fill-rule:evenodd;fill:rgb(100%,0%,0%);fill-opacity:0.3;" d="M 175.710938 2.027344 C 177.480469 3.792969 177.480469 7.328125 162.457031 16.164062 C 147.433594 25.003906 117.386719 39.140625 98.828125 46.210938 C 80.269531 53.28125 73.199219 53.28125 66.128906 53.28125 C 59.058594 53.28125 51.988281 53.28125 68.78125 44.445312 C 85.570312 35.609375 126.222656 17.933594 148.316406 9.097656 C 170.410156 0.257812 173.945312 0.257812 175.710938 2.027344 Z M 175.710938 2.027344 "/>
<path style=" stroke:none;fill-rule:evenodd;fill:rgb(0%,0%,100%);fill-opacity:0.3;" d="M 175.710938 2.027344 C 177.480469 3.792969 177.480469 7.328125 158.921875 15.28125 C 140.363281 23.234375 103.246094 35.609375 84.6875 43.5625 C 66.128906 51.515625 66.128906 55.050781 63.476562 63.003906 C 60.828125 70.957031 55.523438 83.328125 47.570312 100.121094 C 39.617188 116.910156 29.011719 138.121094 23.710938 138.121094 C 18.40625 138.121094 18.40625 116.910156 20.175781 96.585938 C 21.941406 76.257812 25.476562 56.816406 50.222656 40.910156 C 74.964844 25.003906 120.921875 12.628906 145.664062 6.445312 C 170.410156 0.257812 173.945312 0.257812 175.710938 2.027344 Z M 175.710938 2.027344 "/>
<path style=" stroke:none;fill-rule:evenodd;fill:rgb(0%,100%,0%);fill-opacity:0.3;" d="M 175.710938 2.027344 C 177.480469 3.792969 177.480469 7.328125 158.921875 15.28125 C 140.363281 23.234375 103.246094 35.609375 83.804688 43.5625 C 64.363281 51.515625 62.59375 55.050781 56.054688 63.003906 C 49.515625 70.957031 38.203125 83.328125 28.480469 89.515625 C 18.761719 95.699219 10.632812 95.699219 5.683594 94.816406 C 0.734375 93.933594 -1.035156 92.164062 4.269531 82.445312 C 9.570312 72.722656 21.941406 55.050781 50.222656 40.027344 C 78.5 25.003906 122.6875 12.628906 146.550781 6.445312 C 170.410156 0.257812 173.945312 0.257812 175.710938 2.027344 Z M 175.710938 2.027344 "/>
<path style=" stroke:none;fill-rule:evenodd;fill:rgb(0%,0%,0%);fill-opacity:1;" d="M 173.976562 5.5625 C 173.976562 4.566406 173.171875 3.761719 172.175781 3.761719 C 171.183594 3.761719 170.378906 4.566406 170.378906 5.5625 C 170.378906 6.554688 171.183594 7.359375 172.175781 7.359375 C 173.171875 7.359375 173.976562 6.554688 173.976562 5.5625 "/>
<path style=" stroke:none;fill-rule:evenodd;fill:rgb(0%,0%,0%);fill-opacity:1;" d="M 46.71875 47.980469 C 46.71875 46.984375 45.914062 46.179688 44.917969 46.179688 C 43.925781 46.179688 43.117188 46.984375 43.117188 47.980469 C 43.117188 48.972656 43.925781 49.78125 44.917969 49.78125 C 45.914062 49.78125 46.71875 48.972656 46.71875 47.980469 "/>
<path style=" stroke:none;fill-rule:evenodd;fill:rgb(0%,0%,0%);fill-opacity:1;" d="M 67.929688 47.980469 C 67.929688 46.984375 67.121094 46.179688 66.128906 46.179688 C 65.136719 46.179688 64.328125 46.984375 64.328125 47.980469 C 64.328125 48.972656 65.136719 49.78125 66.128906 49.78125 C 67.121094 49.78125 67.929688 48.972656 67.929688 47.980469 "/>
<path style=" stroke:none;fill-rule:evenodd;fill:rgb(0%,0%,0%);fill-opacity:1;" d="M 89.140625 47.980469 C 89.140625 46.984375 88.332031 46.179688 87.339844 46.179688 C 86.34375 46.179688 85.539062 46.984375 85.539062 47.980469 C 85.539062 48.972656 86.34375 49.78125 87.339844 49.78125 C 88.332031 49.78125 89.140625 48.972656 89.140625 47.980469 "/>
<path style=" stroke:none;fill-rule:evenodd;fill:rgb(0%,0%,0%);fill-opacity:1;" d="M 110.347656 47.980469 C 110.347656 46.984375 109.542969 46.179688 108.546875 46.179688 C 107.554688 46.179688 106.746094 46.984375 106.746094 47.980469 C 106.746094 48.972656 107.554688 49.78125 108.546875 49.78125 C 109.542969 49.78125 110.347656 48.972656 110.347656 47.980469 "/>
<path style=" stroke:none;fill-rule:evenodd;fill:rgb(0%,0%,0%);fill-opacity:1;" d="M 131.558594 47.980469 C 131.558594 46.984375 130.753906 46.179688 129.757812 46.179688 C 128.765625 46.179688 127.957031 46.984375 127.957031 47.980469 C 127.957031 48.972656 128.765625 49.78125 129.757812 49.78125 C 130.753906 49.78125 131.558594 48.972656 131.558594 47.980469 "/>
<path style=" stroke:none;fill-rule:evenodd;fill:rgb(0%,0%,0%);fill-opacity:1;" d="M 152.765625 47.980469 C 152.765625 46.984375 151.960938 46.179688 150.96875 46.179688 C 149.972656 46.179688 149.167969 46.984375 149.167969 47.980469 C 149.167969 48.972656 149.972656 49.78125 150.96875 49.78125 C 151.960938 49.78125 152.765625 48.972656 152.765625 47.980469 "/>
<path style=" stroke:none;fill-rule:evenodd;fill:rgb(0%,0%,0%);fill-opacity:1;" d="M 173.976562 47.980469 C 173.976562 46.984375 173.171875 46.179688 172.175781 46.179688 C 171.183594 46.179688 170.378906 46.984375 170.378906 47.980469 C 170.378906 48.972656 171.183594 49.78125 172.175781 49.78125 C 173.171875 49.78125 173.976562 48.972656 173.976562 47.980469 "/>
<path style=" stroke:none;fill-rule:evenodd;fill:rgb(0%,0%,0%);fill-opacity:1;" d="M 195.1875 47.980469 C 195.1875 46.984375 194.382812 46.179688 193.386719 46.179688 C 192.390625 46.179688 191.585938 46.984375 191.585938 47.980469 C 191.585938 48.972656 192.390625 49.78125 193.386719 49.78125 C 194.382812 49.78125 195.1875 48.972656 195.1875 47.980469 "/>
<path style=" stroke:none;fill-rule:evenodd;fill:rgb(0%,0%,0%);fill-opacity:1;" d="M 216.394531 47.980469 C 216.394531 46.984375 215.589844 46.179688 214.597656 46.179688 C 213.601562 46.179688 212.796875 46.984375 212.796875 47.980469 C 212.796875 48.972656 213.601562 49.78125 214.597656 49.78125 C 215.589844 49.78125 216.394531 48.972656 216.394531 47.980469 "/>
<path style=" stroke:none;fill-rule:evenodd;fill:rgb(0%,0%,0%);fill-opacity:1;" d="M 237.605469 47.980469 C 237.605469 46.984375 236.800781 46.179688 235.804688 46.179688 C 234.8125 46.179688 234.007812 46.984375 234.007812 47.980469 C 234.007812 48.972656 234.8125 49.78125 235.804688 49.78125 C 236.800781 49.78125 237.605469 48.972656 237.605469 47.980469 "/>
<path style=" stroke:none;fill-rule:evenodd;fill:rgb(0%,0%,0%);fill-opacity:1;" d="M 258.816406 47.980469 C 258.816406 46.984375 258.011719 46.179688 257.015625 46.179688 C 256.019531 46.179688 255.214844 46.984375 255.214844 47.980469 C 255.214844 48.972656 256.019531 49.78125 257.015625 49.78125 C 258.011719 49.78125 258.816406 48.972656 258.816406 47.980469 "/>
<path style=" stroke:none;fill-rule:evenodd;fill:rgb(0%,0%,0%);fill-opacity:1;" d="M 280.023438 47.980469 C 280.023438 46.984375 279.21875 46.179688 278.226562 46.179688 C 277.230469 46.179688 276.425781 46.984375 276.425781 47.980469 C 276.425781 48.972656 277.230469 49.78125 278.226562 49.78125 C 279.21875 49.78125 280.023438 48.972656 280.023438 47.980469 "/>
<path style=" stroke:none;fill-rule:evenodd;fill:rgb(0%,0%,0%);fill-opacity:1;" d="M 301.234375 47.980469 C 301.234375 46.984375 300.429688 46.179688 299.433594 46.179688 C 298.441406 46.179688 297.636719 46.984375 297.636719 47.980469 C 297.636719 48.972656 298.441406 49.78125 299.433594 49.78125 C 300.429688 49.78125 301.234375 48.972656 301.234375 47.980469 "/>
<path style=" stroke:none;fill-rule:evenodd;fill:rgb(0%,0%,0%);fill-opacity:1;" d="M 89.140625 90.398438 C 89.140625 89.40625 88.332031 88.597656 87.339844 88.597656 C 86.34375 88.597656 85.539062 89.40625 85.539062 90.398438 C 85.539062 91.394531 86.34375 92.199219 87.339844 92.199219 C 88.332031 92.199219 89.140625 91.394531 89.140625 90.398438 "/>
<path style=" stroke:none;fill-rule:evenodd;fill:rgb(0%,0%,0%);fill-opacity:1;" d="M 110.347656 90.398438 C 110.347656 89.40625 109.542969 88.597656 108.546875 88.597656 C 107.554688 88.597656 106.746094 89.40625 106.746094 90.398438 C 106.746094 91.394531 107.554688 92.199219 108.546875 92.199219 C 109.542969 92.199219 110.347656 91.394531 110.347656 90.398438 "/>
<path style=" stroke:none;fill-rule:evenodd;fill:rgb(0%,0%,0%);fill-opacity:1;" d="M 131.558594 90.398438 C 131.558594 89.40625 130.753906 88.597656 129.757812 88.597656 C 128.765625 88.597656 127.957031 89.40625 127.957031 90.398438 C 127.957031 91.394531 128.765625 92.199219 129.757812 92.199219 C 130.753906 92.199219 131.558594 91.394531 131.558594 90.398438 "/>
<path style=" stroke:none;fill-rule:evenodd;fill:rgb(0%,0%,0%);fill-opacity:1;" d="M 152.765625 90.398438 C 152.765625 89.40625 151.960938 88.597656 150.96875 88.597656 C 149.972656 88.597656 149.167969 89.40625 149.167969 90.398438 C 149.167969 91.394531 149.972656 92.199219 150.96875 92.199219 C 151.960938 92.199219 152.765625 91.394531 152.765625 90.398438 "/>
<path style=" stroke:none;fill-rule:evenodd;fill:rgb(0%,0%,0%);fill-opacity:1;" d="M 173.976562 90.398438 C 173.976562 89.40625 173.171875 88.597656 172.175781 88.597656 C 171.183594 88.597656 170.378906 89.40625 170.378906 90.398438 C 170.378906 91.394531 171.183594 92.199219 172.175781 92.199219 C 173.171875 92.199219 173.976562 91.394531 173.976562 90.398438 "/>
<path style=" stroke:none;fill-rule:evenodd;fill:rgb(0%,0%,0%);fill-opacity:1;" d="M 195.1875 90.398438 C 195.1875 89.40625 194.382812 88.597656 193.386719 88.597656 C 192.390625 88.597656 191.585938 89.40625 191.585938 90.398438 C 191.585938 91.394531 192.390625 92.199219 193.386719 92.199219 C 194.382812 92.199219 195.1875 91.394531 195.1875 90.398438 "/>
<path style=" stroke:none;fill-rule:evenodd;fill:rgb(0%,0%,0%);fill-opacity:1;" d="M 216.394531 90.398438 C 216.394531 89.40625 215.589844 88.597656 214.597656 88.597656 C 213.601562 88.597656 212.796875 89.40625 212.796875 90.398438 C 212.796875 91.394531 213.601562 92.199219 214.597656 92.199219 C 215.589844 92.199219 216.394531 91.394531 216.394531 90.398438 "/>
<path style=" stroke:none;fill-rule:evenodd;fill:rgb(0%,0%,0%);fill-opacity:1;" d="M 237.605469 90.398438 C 237.605469 89.40625 236.800781 88.597656 235.804688 88.597656 C 234.8125 88.597656 234.007812 89.40625 234.007812 90.398438 C 234.007812 91.394531 234.8125 92.199219 235.804688 92.199219 C 236.800781 92.199219 237.605469 91.394531 237.605469 90.398438 "/>
<path style=" stroke:none;fill-rule:evenodd;fill:rgb(0%,0%,0%);fill-opacity:1;" d="M 258.816406 90.398438 C 258.816406 89.40625 258.011719 88.597656 257.015625 88.597656 C 256.019531 88.597656 255.214844 89.40625 255.214844 90.398438 C 255.214844 91.394531 256.019531 92.199219 257.015625 92.199219 C 258.011719 92.199219 258.816406 91.394531 258.816406 90.398438 "/>
<path style=" stroke:none;fill-rule:evenodd;fill:rgb(0%,0%,0%);fill-opacity:1;" d="M 280.023438 90.398438 C 280.023438 89.40625 279.21875 88.597656 278.226562 88.597656 C 277.230469 88.597656 276.425781 89.40625 276.425781 90.398438 C 276.425781 91.394531 277.230469 92.199219 278.226562 92.199219 C 279.21875 92.199219 280.023438 91.394531 280.023438 90.398438 "/>
<path style=" stroke:none;fill-rule:evenodd;fill:rgb(0%,0%,0%);fill-opacity:1;" d="M 301.234375 90.398438 C 301.234375 89.40625 300.429688 88.597656 299.433594 88.597656 C 298.441406 88.597656 297.636719 89.40625 297.636719 90.398438 C 297.636719 91.394531 298.441406 92.199219 299.433594 92.199219 C 300.429688 92.199219 301.234375 91.394531 301.234375 90.398438 "/>
<path style=" stroke:none;fill-rule:evenodd;fill:rgb(0%,0%,0%);fill-opacity:1;" d="M 67.929688 90.398438 C 67.929688 89.40625 67.121094 88.597656 66.128906 88.597656 C 65.136719 88.597656 64.328125 89.40625 64.328125 90.398438 C 64.328125 91.394531 65.136719 92.199219 66.128906 92.199219 C 67.121094 92.199219 67.929688 91.394531 67.929688 90.398438 "/>
<path style=" stroke:none;fill-rule:evenodd;fill:rgb(0%,0%,0%);fill-opacity:1;" d="M 46.71875 90.398438 C 46.71875 89.40625 45.914062 88.597656 44.917969 88.597656 C 43.925781 88.597656 43.117188 89.40625 43.117188 90.398438 C 43.117188 91.394531 43.925781 92.199219 44.917969 92.199219 C 45.914062 92.199219 46.71875 91.394531 46.71875 90.398438 "/>
<path style=" stroke:none;fill-rule:evenodd;fill:rgb(0%,0%,0%);fill-opacity:1;" d="M 25.511719 90.398438 C 25.511719 89.40625 24.703125 88.597656 23.710938 88.597656 C 22.714844 88.597656 21.910156 89.40625 21.910156 90.398438 C 21.910156 91.394531 22.714844 92.199219 23.710938 92.199219 C 24.703125 92.199219 25.511719 91.394531 25.511719 90.398438 "/>
<path style=" stroke:none;fill-rule:evenodd;fill:rgb(0%,0%,0%);fill-opacity:1;" d="M 4.300781 90.398438 C 4.300781 89.40625 3.492188 88.597656 2.5 88.597656 C 1.507812 88.597656 0.699219 89.40625 0.699219 90.398438 C 0.699219 91.394531 1.507812 92.199219 2.5 92.199219 C 3.492188 92.199219 4.300781 91.394531 4.300781 90.398438 "/>
<path style="fill:none;stroke-width:0.4;stroke-linecap:butt;stroke-linejoin:round;stroke:rgb(0%,0%,0%);stroke-opacity:1;stroke-miterlimit:10;" d="M 387.438781 678.9775 L 260.180969 636.559531 L 281.391906 636.559531 L 387.438781 678.9775 L 302.602844 636.559531 L 281.391906 636.559531 L 238.973937 594.141562 L 260.180969 594.141562 L 281.391906 636.559531 " transform="matrix(1,0,0,-1,-215.263,684.54)"/>
<path style="fill:none;stroke-width:0.4;stroke-linecap:butt;stroke-linejoin:round;stroke:rgb(0%,0%,0%);stroke-opacity:1;stroke-miterlimit:10;" d="M 260.180969 636.559531 L 217.763 594.141562 L 238.973937 594.141562 L 260.180969 636.559531 " transform="matrix(1,0,0,-1,-215.263,684.54)"/>
<path style="fill:none;stroke-width:0.4;stroke-linecap:butt;stroke-linejoin:round;stroke:rgb(0%,0%,0%);stroke-opacity:1;stroke-miterlimit:10;" d="M 302.602844 636.559531 L 323.809875 636.559531 L 387.438781 678.9775 L 345.020812 636.559531 L 323.809875 636.559531 L 281.391906 594.141562 L 302.602844 594.141562 L 323.809875 636.559531 L 323.809875 594.141562 L 302.602844 594.141562 " transform="matrix(1,0,0,-1,-215.263,684.54)"/>
<path style="fill:none;stroke-width:0.4;stroke-linecap:butt;stroke-linejoin:round;stroke:rgb(0%,0%,0%);stroke-opacity:1;stroke-miterlimit:10;" d="M 323.809875 636.559531 L 345.020812 594.141562 L 323.809875 594.141562 " transform="matrix(1,0,0,-1,-215.263,684.54)"/>
<path style="fill:none;stroke-width:0.4;stroke-linecap:butt;stroke-linejoin:round;stroke:rgb(0%,0%,0%);stroke-opacity:1;stroke-miterlimit:10;" d="M 345.020812 594.141562 L 345.020812 636.559531 L 366.23175 594.141562 L 387.438781 594.141562 L 345.020812 636.559531 " transform="matrix(1,0,0,-1,-215.263,684.54)"/>
<path style="fill:none;stroke-width:0.4;stroke-linecap:butt;stroke-linejoin:round;stroke:rgb(0%,0%,0%);stroke-opacity:1;stroke-miterlimit:10;" d="M 366.23175 594.141562 L 345.020812 594.141562 " transform="matrix(1,0,0,-1,-215.263,684.54)"/>
<path style="fill:none;stroke-width:0.4;stroke-linecap:butt;stroke-linejoin:round;stroke:rgb(0%,0%,0%);stroke-opacity:1;stroke-miterlimit:10;" d="M 345.020812 636.559531 L 366.23175 636.559531 L 387.438781 678.9775 L 387.438781 636.559531 L 366.23175 636.559531 " transform="matrix(1,0,0,-1,-215.263,684.54)"/>
<path style="fill:none;stroke-width:0.4;stroke-linecap:butt;stroke-linejoin:round;stroke:rgb(0%,0%,0%);stroke-opacity:1;stroke-miterlimit:10;" d="M 387.438781 678.9775 L 408.649719 636.559531 L 387.438781 636.559531 " transform="matrix(1,0,0,-1,-215.263,684.54)"/>
<path style="fill:none;stroke-width:0.4;stroke-linecap:butt;stroke-linejoin:round;stroke:rgb(0%,0%,0%);stroke-opacity:1;stroke-miterlimit:10;" d="M 408.649719 636.559531 L 429.860656 636.559531 L 387.438781 678.9775 L 451.067687 636.559531 L 429.860656 636.559531 L 408.649719 594.141562 L 429.860656 594.141562 L 429.860656 636.559531 L 451.067687 594.141562 L 429.860656 594.141562 " transform="matrix(1,0,0,-1,-215.263,684.54)"/>
<path style="fill:none;stroke-width:0.4;stroke-linecap:butt;stroke-linejoin:round;stroke:rgb(0%,0%,0%);stroke-opacity:1;stroke-miterlimit:10;" d="M 451.067687 636.559531 L 451.067687 594.141562 L 472.278625 594.141562 L 451.067687 636.559531 L 493.489562 594.141562 L 514.696594 594.141562 L 451.067687 636.559531 " transform="matrix(1,0,0,-1,-215.263,684.54)"/>
<path style="fill:none;stroke-width:0.4;stroke-linecap:butt;stroke-linejoin:round;stroke:rgb(0%,0%,0%);stroke-opacity:1;stroke-miterlimit:10;" d="M 472.278625 594.141562 L 493.489562 594.141562 " transform="matrix(1,0,0,-1,-215.263,684.54)"/>
<path style="fill:none;stroke-width:0.4;stroke-linecap:butt;stroke-linejoin:round;stroke:rgb(0%,0%,0%);stroke-opacity:1;stroke-miterlimit:10;" d="M 493.489562 636.559531 L 514.696594 636.559531 L 387.438781 678.9775 L 493.489562 636.559531 L 472.278625 636.559531 L 387.438781 678.9775 " transform="matrix(1,0,0,-1,-215.263,684.54)"/>
<path style="fill:none;stroke-width:0.4;stroke-linecap:butt;stroke-linejoin:round;stroke:rgb(0%,0%,0%);stroke-opacity:1;stroke-miterlimit:10;" d="M 451.067687 636.559531 L 472.278625 636.559531 " transform="matrix(1,0,0,-1,-215.263,684.54)"/>
<path style=" stroke:none;fill-rule:evenodd;fill:rgb(0%,0%,0%);fill-opacity:1;" d="M 89.140625 132.816406 C 89.140625 131.824219 88.332031 131.019531 87.339844 131.019531 C 86.34375 131.019531 85.539062 131.824219 85.539062 132.816406 C 85.539062 133.8125 86.34375 134.617188 87.339844 134.617188 C 88.332031 134.617188 89.140625 133.8125 89.140625 132.816406 "/>
<path style=" stroke:none;fill-rule:evenodd;fill:rgb(0%,0%,0%);fill-opacity:1;" d="M 110.347656 132.816406 C 110.347656 131.824219 109.542969 131.019531 108.546875 131.019531 C 107.554688 131.019531 106.746094 131.824219 106.746094 132.816406 C 106.746094 133.8125 107.554688 134.617188 108.546875 134.617188 C 109.542969 134.617188 110.347656 133.8125 110.347656 132.816406 "/>
<path style=" stroke:none;fill-rule:evenodd;fill:rgb(0%,0%,0%);fill-opacity:1;" d="M 131.558594 132.816406 C 131.558594 131.824219 130.753906 131.019531 129.757812 131.019531 C 128.765625 131.019531 127.957031 131.824219 127.957031 132.816406 C 127.957031 133.8125 128.765625 134.617188 129.757812 134.617188 C 130.753906 134.617188 131.558594 133.8125 131.558594 132.816406 "/>
<path style=" stroke:none;fill-rule:evenodd;fill:rgb(0%,0%,0%);fill-opacity:1;" d="M 152.765625 132.816406 C 152.765625 131.824219 151.960938 131.019531 150.96875 131.019531 C 149.972656 131.019531 149.167969 131.824219 149.167969 132.816406 C 149.167969 133.8125 149.972656 134.617188 150.96875 134.617188 C 151.960938 134.617188 152.765625 133.8125 152.765625 132.816406 "/>
<path style=" stroke:none;fill-rule:evenodd;fill:rgb(0%,0%,0%);fill-opacity:1;" d="M 195.1875 132.816406 C 195.1875 131.824219 194.382812 131.019531 193.386719 131.019531 C 192.390625 131.019531 191.585938 131.824219 191.585938 132.816406 C 191.585938 133.8125 192.390625 134.617188 193.386719 134.617188 C 194.382812 134.617188 195.1875 133.8125 195.1875 132.816406 "/>
<path style=" stroke:none;fill-rule:evenodd;fill:rgb(0%,0%,0%);fill-opacity:1;" d="M 216.394531 132.816406 C 216.394531 131.824219 215.589844 131.019531 214.597656 131.019531 C 213.601562 131.019531 212.796875 131.824219 212.796875 132.816406 C 212.796875 133.8125 213.601562 134.617188 214.597656 134.617188 C 215.589844 134.617188 216.394531 133.8125 216.394531 132.816406 "/>
<path style=" stroke:none;fill-rule:evenodd;fill:rgb(0%,0%,0%);fill-opacity:1;" d="M 237.605469 132.816406 C 237.605469 131.824219 236.800781 131.019531 235.804688 131.019531 C 234.8125 131.019531 234.007812 131.824219 234.007812 132.816406 C 234.007812 133.8125 234.8125 134.617188 235.804688 134.617188 C 236.800781 134.617188 237.605469 133.8125 237.605469 132.816406 "/>
<path style=" stroke:none;fill-rule:evenodd;fill:rgb(0%,0%,0%);fill-opacity:1;" d="M 258.816406 132.816406 C 258.816406 131.824219 258.011719 131.019531 257.015625 131.019531 C 256.019531 131.019531 255.214844 131.824219 255.214844 132.816406 C 255.214844 133.8125 256.019531 134.617188 257.015625 134.617188 C 258.011719 134.617188 258.816406 133.8125 258.816406 132.816406 "/>
<path style=" stroke:none;fill-rule:evenodd;fill:rgb(0%,0%,0%);fill-opacity:1;" d="M 25.511719 132.816406 C 25.511719 131.824219 24.703125 131.019531 23.710938 131.019531 C 22.714844 131.019531 21.910156 131.824219 21.910156 132.816406 C 21.910156 133.8125 22.714844 134.617188 23.710938 134.617188 C 24.703125 134.617188 25.511719 133.8125 25.511719 132.816406 "/>
<path style="fill:none;stroke-width:0.4;stroke-linecap:butt;stroke-linejoin:round;stroke:rgb(0%,0%,0%);stroke-opacity:1;stroke-miterlimit:10;" d="M 238.973937 594.141562 L 238.973937 551.723594 L 260.180969 594.141562 " transform="matrix(1,0,0,-1,-215.263,684.54)"/>
<path style="fill:none;stroke-width:0.4;stroke-linecap:butt;stroke-linejoin:round;stroke:rgb(0%,0%,0%);stroke-opacity:1;stroke-miterlimit:10;" d="M 323.809875 594.141562 L 302.602844 551.723594 L 323.809875 551.723594 L 323.809875 594.141562 L 345.020812 551.723594 L 323.809875 551.723594 " transform="matrix(1,0,0,-1,-215.263,684.54)"/>
<path style="fill:none;stroke-width:0.4;stroke-linecap:butt;stroke-linejoin:round;stroke:rgb(0%,0%,0%);stroke-opacity:1;stroke-miterlimit:10;" d="M 345.020812 594.141562 L 345.020812 551.723594 L 366.23175 551.723594 L 345.020812 594.141562 " transform="matrix(1,0,0,-1,-215.263,684.54)"/>
<path style="fill:none;stroke-width:0.4;stroke-linecap:butt;stroke-linejoin:round;stroke:rgb(0%,0%,0%);stroke-opacity:1;stroke-miterlimit:10;" d="M 408.649719 551.723594 L 429.860656 594.141562 L 451.067687 551.723594 L 429.860656 551.723594 L 429.860656 594.141562 " transform="matrix(1,0,0,-1,-215.263,684.54)"/>
<path style="fill:none;stroke-width:0.4;stroke-linecap:butt;stroke-linejoin:round;stroke:rgb(0%,0%,0%);stroke-opacity:1;stroke-miterlimit:10;" d="M 408.649719 551.723594 L 429.860656 551.723594 " transform="matrix(1,0,0,-1,-215.263,684.54)"/>
<path style="fill:none;stroke-width:0.4;stroke-linecap:butt;stroke-linejoin:round;stroke:rgb(0%,0%,0%);stroke-opacity:1;stroke-miterlimit:10;" d="M 472.278625 551.723594 L 429.860656 594.141562 " transform="matrix(1,0,0,-1,-215.263,684.54)"/>
<path style="fill:none;stroke-width:0.4;stroke-linecap:butt;stroke-linejoin:round;stroke:rgb(0%,0%,0%);stroke-opacity:1;stroke-miterlimit:10;" d="M 451.067687 551.723594 L 472.278625 551.723594 L 451.067687 594.141562 " transform="matrix(1,0,0,-1,-215.263,684.54)"/>
<path style=" stroke:none;fill-rule:evenodd;fill:rgb(0%,0%,0%);fill-opacity:1;" d="M 67.929688 175.238281 C 67.929688 174.242188 67.121094 173.4375 66.128906 173.4375 C 65.136719 173.4375 64.328125 174.242188 64.328125 175.238281 C 64.328125 176.230469 65.136719 177.035156 66.128906 177.035156 C 67.121094 177.035156 67.929688 176.230469 67.929688 175.238281 "/>
<path style=" stroke:none;fill-rule:evenodd;fill:rgb(0%,0%,0%);fill-opacity:1;" d="M 89.140625 175.238281 C 89.140625 174.242188 88.332031 173.4375 87.339844 173.4375 C 86.34375 173.4375 85.539062 174.242188 85.539062 175.238281 C 85.539062 176.230469 86.34375 177.035156 87.339844 177.035156 C 88.332031 177.035156 89.140625 176.230469 89.140625 175.238281 "/>
<path style=" stroke:none;fill-rule:evenodd;fill:rgb(0%,0%,0%);fill-opacity:1;" d="M 110.347656 175.238281 C 110.347656 174.242188 109.542969 173.4375 108.546875 173.4375 C 107.554688 173.4375 106.746094 174.242188 106.746094 175.238281 C 106.746094 176.230469 107.554688 177.035156 108.546875 177.035156 C 109.542969 177.035156 110.347656 176.230469 110.347656 175.238281 "/>
<path style=" stroke:none;fill-rule:evenodd;fill:rgb(0%,0%,0%);fill-opacity:1;" d="M 131.558594 175.238281 C 131.558594 174.242188 130.753906 173.4375 129.757812 173.4375 C 128.765625 173.4375 127.957031 174.242188 127.957031 175.238281 C 127.957031 176.230469 128.765625 177.035156 129.757812 177.035156 C 130.753906 177.035156 131.558594 176.230469 131.558594 175.238281 "/>
<path style="fill:none;stroke-width:0.4;stroke-linecap:butt;stroke-linejoin:round;stroke:rgb(0%,0%,0%);stroke-opacity:1;stroke-miterlimit:10;" d="M 323.809875 551.723594 L 281.391906 509.301719 L 302.602844 509.301719 L 323.809875 551.723594 L 323.809875 509.301719 L 345.020812 509.301719 L 323.809875 551.723594 " transform="matrix(1,0,0,-1,-215.263,684.54)"/>
<path style="fill:none;stroke-width:0.4;stroke-linecap:butt;stroke-linejoin:round;stroke:rgb(0%,0%,0%);stroke-opacity:1;stroke-miterlimit:10;" d="M 302.602844 551.723594 L 281.391906 509.301719 " transform="matrix(1,0,0,-1,-215.263,684.54)"/>
<path style="fill:none;stroke-width:0.4;stroke-linecap:butt;stroke-linejoin:round;stroke:rgb(0%,0%,0%);stroke-opacity:1;stroke-miterlimit:10;" d="M 302.602844 509.301719 L 323.809875 509.301719 " transform="matrix(1,0,0,-1,-215.263,684.54)"/>
<path style="fill:none;stroke-width:0.4;stroke-linecap:butt;stroke-linejoin:round;stroke:rgb(100%,100%,100%);stroke-opacity:1;stroke-miterlimit:10;" d="M 232.001281 616.000937 Z M 232.001281 616.000937 " transform="matrix(1,0,0,-1,-215.263,684.54)"/>
</g>
</svg>
